<?xml version="1.0" encoding="UTF-8"?>
<svg width="375px" height="265px" viewBox="0 0 375 265" version="1.1" xmlns="http://www.w3.org/2000/svg" xmlns:xlink="http://www.w3.org/1999/xlink">
    <!-- Generator: Sketch 44.1 (41455) - http://www.bohemiancoding.com/sketch -->
    <title>背景&amp;标题 copy</title>
    <desc>Created with Sketch.</desc>
    <defs></defs>
    <g id="活动页" stroke="none" stroke-width="1" fill="none" fill-rule="evenodd">
        <g id="抽奖转盘-copy-2" transform="translate(0.000000, -237.000000)">
            <g id="背景&amp;标题" transform="translate(4.000000, 7.000000)">
                <g id="背景装饰">
                    <g id="Group-Copy-2" transform="translate(318.960817, 447.637051) rotate(-17.000000) translate(-318.960817, -447.637051) translate(306.960817, 439.137051)">
                        <polygon id="Path-4" fill="#FF2D4B" points="19.5471777 0.0915659203 0.650309082 16.9760036 23.3533885 8.53378478"></polygon>
                        <polygon id="Path-5" fill="#8E0F21" points="0.943804611 16.8525676 23.3230915 12.2327101 23.3230915 8.53468795"></polygon>
                    </g>
                    <g id="Group-Copy-3" transform="translate(341.490632, 376.365590) rotate(-330.000000) translate(-341.490632, -376.365590) translate(332.490632, 369.865590)">
                        <polygon id="Path-4" fill="#349FFF" points="14.7245796 0.0689751588 0.489867541 12.7877549 17.591738 6.42836503"></polygon>
                        <polygon id="Path-5" fill="#1B75C4" points="0.710953079 12.6947725 17.5689157 9.21470693 17.5689157 6.42904538"></polygon>
                    </g>
                    <path d="M29.7463512,221.286822 L29.6413099,221.584867 C29.5636564,221.805201 29.3220889,221.920868 29.101754,221.843214 C29.0164102,221.813136 28.942961,221.756483 28.8921949,221.681576 L28.6873367,221.379301 L28.6873367,221.379301 C28.5101357,221.117835 28.2198228,220.955457 27.9042841,220.941322 L27.5537295,220.925619 L27.5537295,220.925619 C27.3154645,220.914946 27.1309648,220.713142 27.1416378,220.474877 C27.1456392,220.385552 27.177269,220.29967 27.2321615,220.229088 L27.4289555,219.976044 L27.4289555,219.976044 C27.6271695,219.721174 27.6901303,219.386283 27.5980114,219.076829 L27.502439,218.755774 L27.502439,218.755774 C27.4359289,218.532348 27.5631347,218.297308 27.786561,218.230798 C27.8747814,218.204536 27.9691682,218.207832 28.0553418,218.240184 L28.3689479,218.357919 C28.6712219,218.4714 29.0096892,218.431953 29.277765,218.252001 L29.5439204,218.073338 C29.7419455,217.940409 30.0102369,217.99318 30.143166,218.191205 C30.1930012,218.265444 30.2185632,218.353323 30.2163238,218.44271 L30.207535,218.793506 L30.207535,218.793506 C30.1996242,219.109262 30.3413558,219.410195 30.5898236,219.605203 L30.8770719,219.830648 L30.8770719,219.830648 C31.0608481,219.974883 31.0929022,220.240789 30.9486667,220.424566 C30.892799,220.495749 30.8155768,220.547141 30.7283428,220.571192 L30.4236964,220.655187 L30.4236964,220.655187 C30.1081475,220.742188 29.8551517,220.97811 29.7463512,221.286822 L29.7463512,221.286822 Z M30.0895111,229.046181 L30.0982564,229.362074 C30.1047215,229.595603 29.9206499,229.790156 29.687121,229.796622 C29.5966667,229.799126 29.5077932,229.772557 29.4335547,229.720818 L29.1339775,229.512035 L29.1339775,229.512035 C28.8748452,229.331439 28.5456236,229.283885 28.2459775,229.383768 L27.9130791,229.494736 L27.9130791,229.494736 C27.6868148,229.570158 27.4422493,229.447876 27.3668269,229.221612 C27.338551,229.136785 27.3373029,229.045273 27.363255,228.959707 L27.4562951,228.652945 C27.5500065,228.34397 27.4887713,228.008759 27.2918726,227.752872 L27.0875923,227.487391 L27.0875923,227.487391 C26.9454309,227.30264 26.979957,227.037625 27.1647083,226.895464 C27.2376578,226.839331 27.3269567,226.808583 27.4190005,226.807904 L27.7539696,226.805433 C28.0768346,226.803051 28.3786845,226.644928 28.5644658,226.380859 L28.7489161,226.118681 C28.8861509,225.923615 29.1555339,225.876734 29.3505997,226.013968 C29.4237301,226.065418 29.4790871,226.138299 29.5090299,226.222552 L29.626539,226.553198 C29.7323104,226.850816 29.9724729,227.080969 30.2743223,227.173982 L30.6232838,227.281512 C30.8465431,227.350308 30.9717603,227.587066 30.9029644,227.810325 C30.8763172,227.896801 30.8226412,227.972454 30.7498205,228.02617 L30.4955097,228.213761 C30.2320977,228.408066 30.0804528,228.718984 30.0895111,229.046181 L30.0895111,229.046181 Z M32.676783,234.851414 L32.9173886,235.056289 C33.0952605,235.207745 33.116674,235.474719 32.9652172,235.652591 C32.9065524,235.721487 32.8273402,235.769755 32.7392155,235.790305 L32.3836031,235.873231 C32.0760007,235.944962 31.8203687,236.157801 31.694094,236.447316 L31.5538065,236.76896 C31.4584559,236.987574 31.2039367,237.0875 30.9853221,236.992149 C30.9033634,236.956402 30.8345214,236.896096 30.7882986,236.819555 L30.6225862,236.545149 C30.4556781,236.268763 30.1655935,236.08997 29.8436811,236.065072 L29.5097004,236.039241 L29.5097004,236.039241 C29.2772789,236.021264 29.1034367,235.818277 29.1214131,235.585855 C29.1285111,235.494083 29.1654134,235.407147 29.2264981,235.33829 L29.4487998,235.087706 C29.6630687,234.846177 29.7475379,234.516054 29.6756077,234.201295 L29.6041929,233.88879 C29.5510588,233.65628 29.6964715,233.42472 29.9289815,233.371586 C30.0161496,233.351666 30.1073518,233.359295 30.1899994,233.393419 L30.5143461,233.527338 C30.8062948,233.64788 31.1380317,233.623407 31.4091305,233.461327 L31.7225419,233.27395 L31.7225419,233.27395 C31.9230568,233.154069 32.1827886,233.219436 32.3026691,233.419951 C32.3491032,233.497618 32.3694075,233.588128 32.3605997,233.678188 L32.3298401,233.992701 C32.2979798,234.318469 32.4275667,234.639208 32.676783,234.851414 Z M45.4260288,225.221778 C40.6129997,222.515039 36.1955465,221.565787 32.1736694,222.374023 C32.7026034,220.598832 32.4487061,221.267201 33.0683625,218.632155 C37.4780883,218.564048 41.5973105,220.760589 45.4260288,225.221778 Z M45.861496,225.724951 C40.3490177,225.402043 35.9625125,226.485345 32.7019806,228.974857 C32.3991907,227.147457 32.4639832,227.859485 31.8657982,225.219481 C35.7993776,223.22517 40.4646102,223.39366 45.861496,225.724951 Z M45.8129265,226.321424 C40.5808822,228.08704 36.9195976,230.734674 34.8290728,234.264326 C33.8637746,232.683417 34.1905794,233.319326 32.6469891,231.095641 C35.5470585,227.773004 39.9357043,226.181598 45.8129265,226.321424 Z" id="Combined-Shape" fill="#FFD770" transform="translate(36.430748, 227.514136) rotate(50.000000) translate(-36.430748, -227.514136) "></path>
                    <path d="M17.9374629,431.588501 C17.9374629,435.263748 15.0568407,438.687145 13.3153492,438.838676 C11.5738577,438.990207 23.2807362,438.215839 23.3041344,442.460934 C23.3275325,446.706028 12.0373641,443.123882 12.0975307,445.449213 C12.1576974,447.774544 23.7230728,446.719399 23.5136036,450.900984 C23.3041344,455.082569 9.99838169,450.737197 11.0479562,453.024645 C12.0975307,455.312094 23.4110974,454.65026 23.4623505,457.729903 C23.5136036,460.809547 14.5454238,457.15832 13.9303865,460.729324 C13.3153492,464.300329 19.340932,461.913717 19.5080617,464.448517" id="Path-9-Copy" stroke="#FFD770" stroke-width="1.5" stroke-linecap="round" transform="translate(17.252700, 448.018509) rotate(58.000000) translate(-17.252700, -448.018509) "></path>
                    <circle id="Oval-5" fill="#349FFF" cx="349.5" cy="266.5" r="5.5"></circle>
                    <circle id="Oval-5-Copy-2" fill="#7ED321" cx="13.5" cy="307.5" r="5.5"></circle>
                </g>
            </g>
            <path d="M50.6104529,346.773765 C49.5500283,353.694289 49,360.782912 49,368 C49,390.380356 54.2892608,411.52534 63.6859364,430.253104 M69.1205145,440.071648 C70.5054643,442.351183 71.954132,444.587722 73.4640458,446.778795 M327,368 C327,340.081474 318.769126,314.085372 304.60161,292.305925 M299.1042,284.459092 C298.224873,283.291494 297.327569,282.138201 296.412697,280.999624" id="Oval-2-Copy-2" stroke="#2C292D" stroke-width="3" stroke-linecap="round"></path>
        </g>
    </g>
</svg>