<?xml version="1.0" encoding="UTF-8"?>
<svg width="36px" height="36px" viewBox="0 0 36 36" version="1.1" xmlns="http://www.w3.org/2000/svg" xmlns:xlink="http://www.w3.org/1999/xlink">
    <!-- Generator: Sketch 44.1 (41455) - http://www.bohemiancoding.com/sketch -->
    <title>背景平铺小点</title>
    <desc>Created with Sketch.</desc>
    <defs>
        <rect id="path-1" x="0" y="0" width="36" height="36"></rect>
    </defs>
    <g id="活动页" stroke="none" stroke-width="1" fill="none" fill-rule="evenodd">
        <g id="抽奖转盘-copy-2" transform="translate(-4.000000, -10.000000)">
            <g id="背景平铺小点" transform="translate(4.000000, 10.000000)">
                <mask id="mask-2" fill="white">
                    <use xlink:href="#path-1"></use>
                </mask>
                <use id="Rectangle" fill="#FFFFFF" xlink:href="#path-1"></use>
                <g id="背景小点" opacity="0.200000003" mask="url(#mask-2)" fill="#87858F">
                    <g transform="translate(-16.000000, 0.000000)">
                        <path d="M7,2 C6.44771525,2 6,1.55228475 6,1 C6,0.44771525 6.44771525,0 7,0 C7.55228475,0 8,0.44771525 8,1 C8,1.55228475 7.55228475,2 7,2 Z M19,2 C18.4477153,2 18,1.55228475 18,1 C18,0.44771525 18.4477153,0 19,0 C19.5522847,0 20,0.44771525 20,1 C20,1.55228475 19.5522847,2 19,2 Z M31,2 C30.4477153,2 30,1.55228475 30,1 C30,0.44771525 30.4477153,0 31,0 C31.5522847,0 32,0.44771525 32,1 C32,1.55228475 31.5522847,2 31,2 Z M43,2 C42.4477153,2 42,1.55228475 42,1 C42,0.44771525 42.4477153,0 43,0 C43.5522847,0 44,0.44771525 44,1 C44,1.55228475 43.5522847,2 43,2 Z M55,2 C54.4477153,2 54,1.55228475 54,1 C54,0.44771525 54.4477153,0 55,0 C55.5522847,0 56,0.44771525 56,1 C56,1.55228475 55.5522847,2 55,2 Z M67,2 C66.4477153,2 66,1.55228475 66,1 C66,0.44771525 66.4477153,0 67,0 C67.5522847,0 68,0.44771525 68,1 C68,1.55228475 67.5522847,2 67,2 Z M79,2 C78.4477153,2 78,1.55228475 78,1 C78,0.44771525 78.4477153,0 79,0 C79.5522847,0 80,0.44771525 80,1 C80,1.55228475 79.5522847,2 79,2 Z M91,2 C90.4477153,2 90,1.55228475 90,1 C90,0.44771525 90.4477153,0 91,0 C91.5522847,0 92,0.44771525 92,1 C92,1.55228475 91.5522847,2 91,2 Z M103,2 C102.447715,2 102,1.55228475 102,1 C102,0.44771525 102.447715,0 103,0 C103.552285,0 104,0.44771525 104,1 C104,1.55228475 103.552285,2 103,2 Z M115,2 C114.447715,2 114,1.55228475 114,1 C114,0.44771525 114.447715,0 115,0 C115.552285,0 116,0.44771525 116,1 C116,1.55228475 115.552285,2 115,2 Z M127,2 C126.447715,2 126,1.55228475 126,1 C126,0.44771525 126.447715,0 127,0 C127.552285,0 128,0.44771525 128,1 C128,1.55228475 127.552285,2 127,2 Z M139,2 C138.447715,2 138,1.55228475 138,1 C138,0.44771525 138.447715,0 139,0 C139.552285,0 140,0.44771525 140,1 C140,1.55228475 139.552285,2 139,2 Z M151,2 C150.447715,2 150,1.55228475 150,1 C150,0.44771525 150.447715,0 151,0 C151.552285,0 152,0.44771525 152,1 C152,1.55228475 151.552285,2 151,2 Z M163,2 C162.447715,2 162,1.55228475 162,1 C162,0.44771525 162.447715,0 163,0 C163.552285,0 164,0.44771525 164,1 C164,1.55228475 163.552285,2 163,2 Z M175,2 C174.447715,2 174,1.55228475 174,1 C174,0.44771525 174.447715,0 175,0 C175.552285,0 176,0.44771525 176,1 C176,1.55228475 175.552285,2 175,2 Z M187,2 C186.447715,2 186,1.55228475 186,1 C186,0.44771525 186.447715,0 187,0 C187.552285,0 188,0.44771525 188,1 C188,1.55228475 187.552285,2 187,2 Z M199,2 C198.447715,2 198,1.55228475 198,1 C198,0.44771525 198.447715,0 199,0 C199.552285,0 200,0.44771525 200,1 C200,1.55228475 199.552285,2 199,2 Z M211,2 C210.447715,2 210,1.55228475 210,1 C210,0.44771525 210.447715,0 211,0 C211.552285,0 212,0.44771525 212,1 C212,1.55228475 211.552285,2 211,2 Z M223,2 C222.447715,2 222,1.55228475 222,1 C222,0.44771525 222.447715,0 223,0 C223.552285,0 224,0.44771525 224,1 C224,1.55228475 223.552285,2 223,2 Z M235,2 C234.447715,2 234,1.55228475 234,1 C234,0.44771525 234.447715,0 235,0 C235.552285,0 236,0.44771525 236,1 C236,1.55228475 235.552285,2 235,2 Z M247,2 C246.447715,2 246,1.55228475 246,1 C246,0.44771525 246.447715,0 247,0 C247.552285,0 248,0.44771525 248,1 C248,1.55228475 247.552285,2 247,2 Z M259,2 C258.447715,2 258,1.55228475 258,1 C258,0.44771525 258.447715,0 259,0 C259.552285,0 260,0.44771525 260,1 C260,1.55228475 259.552285,2 259,2 Z M271,2 C270.447715,2 270,1.55228475 270,1 C270,0.44771525 270.447715,0 271,0 C271.552285,0 272,0.44771525 272,1 C272,1.55228475 271.552285,2 271,2 Z M283,2 C282.447715,2 282,1.55228475 282,1 C282,0.44771525 282.447715,0 283,0 C283.552285,0 284,0.44771525 284,1 C284,1.55228475 283.552285,2 283,2 Z M295,2 C294.447715,2 294,1.55228475 294,1 C294,0.44771525 294.447715,0 295,0 C295.552285,0 296,0.44771525 296,1 C296,1.55228475 295.552285,2 295,2 Z M307,2 C306.447715,2 306,1.55228475 306,1 C306,0.44771525 306.447715,0 307,0 C307.552285,0 308,0.44771525 308,1 C308,1.55228475 307.552285,2 307,2 Z M319,2 C318.447715,2 318,1.55228475 318,1 C318,0.44771525 318.447715,0 319,0 C319.552285,0 320,0.44771525 320,1 C320,1.55228475 319.552285,2 319,2 Z M331,2 C330.447715,2 330,1.55228475 330,1 C330,0.44771525 330.447715,0 331,0 C331.552285,0 332,0.44771525 332,1 C332,1.55228475 331.552285,2 331,2 Z M343,2 C342.447715,2 342,1.55228475 342,1 C342,0.44771525 342.447715,0 343,0 C343.552285,0 344,0.44771525 344,1 C344,1.55228475 343.552285,2 343,2 Z M355,2 C354.447715,2 354,1.55228475 354,1 C354,0.44771525 354.447715,0 355,0 C355.552285,0 356,0.44771525 356,1 C356,1.55228475 355.552285,2 355,2 Z M367,2 C366.447715,2 366,1.55228475 366,1 C366,0.44771525 366.447715,0 367,0 C367.552285,0 368,0.44771525 368,1 C368,1.55228475 367.552285,2 367,2 Z M379,2 C378.447715,2 378,1.55228475 378,1 C378,0.44771525 378.447715,0 379,0 C379.552285,0 380,0.44771525 380,1 C380,1.55228475 379.552285,2 379,2 Z M391,2 C390.447715,2 390,1.55228475 390,1 C390,0.44771525 390.447715,0 391,0 C391.552285,0 392,0.44771525 392,1 C392,1.55228475 391.552285,2 391,2 Z" id="Combined-Shape"></path>
                        <path d="M7,26 C6.44771525,26 6,25.5522847 6,25 C6,24.4477153 6.44771525,24 7,24 C7.55228475,24 8,24.4477153 8,25 C8,25.5522847 7.55228475,26 7,26 Z M19,26 C18.4477153,26 18,25.5522847 18,25 C18,24.4477153 18.4477153,24 19,24 C19.5522847,24 20,24.4477153 20,25 C20,25.5522847 19.5522847,26 19,26 Z M31,26 C30.4477153,26 30,25.5522847 30,25 C30,24.4477153 30.4477153,24 31,24 C31.5522847,24 32,24.4477153 32,25 C32,25.5522847 31.5522847,26 31,26 Z M43,26 C42.4477153,26 42,25.5522847 42,25 C42,24.4477153 42.4477153,24 43,24 C43.5522847,24 44,24.4477153 44,25 C44,25.5522847 43.5522847,26 43,26 Z M55,26 C54.4477153,26 54,25.5522847 54,25 C54,24.4477153 54.4477153,24 55,24 C55.5522847,24 56,24.4477153 56,25 C56,25.5522847 55.5522847,26 55,26 Z M67,26 C66.4477153,26 66,25.5522847 66,25 C66,24.4477153 66.4477153,24 67,24 C67.5522847,24 68,24.4477153 68,25 C68,25.5522847 67.5522847,26 67,26 Z M79,26 C78.4477153,26 78,25.5522847 78,25 C78,24.4477153 78.4477153,24 79,24 C79.5522847,24 80,24.4477153 80,25 C80,25.5522847 79.5522847,26 79,26 Z M91,26 C90.4477153,26 90,25.5522847 90,25 C90,24.4477153 90.4477153,24 91,24 C91.5522847,24 92,24.4477153 92,25 C92,25.5522847 91.5522847,26 91,26 Z M103,26 C102.447715,26 102,25.5522847 102,25 C102,24.4477153 102.447715,24 103,24 C103.552285,24 104,24.4477153 104,25 C104,25.5522847 103.552285,26 103,26 Z M115,26 C114.447715,26 114,25.5522847 114,25 C114,24.4477153 114.447715,24 115,24 C115.552285,24 116,24.4477153 116,25 C116,25.5522847 115.552285,26 115,26 Z M127,26 C126.447715,26 126,25.5522847 126,25 C126,24.4477153 126.447715,24 127,24 C127.552285,24 128,24.4477153 128,25 C128,25.5522847 127.552285,26 127,26 Z M139,26 C138.447715,26 138,25.5522847 138,25 C138,24.4477153 138.447715,24 139,24 C139.552285,24 140,24.4477153 140,25 C140,25.5522847 139.552285,26 139,26 Z M151,26 C150.447715,26 150,25.5522847 150,25 C150,24.4477153 150.447715,24 151,24 C151.552285,24 152,24.4477153 152,25 C152,25.5522847 151.552285,26 151,26 Z M163,26 C162.447715,26 162,25.5522847 162,25 C162,24.4477153 162.447715,24 163,24 C163.552285,24 164,24.4477153 164,25 C164,25.5522847 163.552285,26 163,26 Z M175,26 C174.447715,26 174,25.5522847 174,25 C174,24.4477153 174.447715,24 175,24 C175.552285,24 176,24.4477153 176,25 C176,25.5522847 175.552285,26 175,26 Z M187,26 C186.447715,26 186,25.5522847 186,25 C186,24.4477153 186.447715,24 187,24 C187.552285,24 188,24.4477153 188,25 C188,25.5522847 187.552285,26 187,26 Z M199,26 C198.447715,26 198,25.5522847 198,25 C198,24.4477153 198.447715,24 199,24 C199.552285,24 200,24.4477153 200,25 C200,25.5522847 199.552285,26 199,26 Z M211,26 C210.447715,26 210,25.5522847 210,25 C210,24.4477153 210.447715,24 211,24 C211.552285,24 212,24.4477153 212,25 C212,25.5522847 211.552285,26 211,26 Z M223,26 C222.447715,26 222,25.5522847 222,25 C222,24.4477153 222.447715,24 223,24 C223.552285,24 224,24.4477153 224,25 C224,25.5522847 223.552285,26 223,26 Z M235,26 C234.447715,26 234,25.5522847 234,25 C234,24.4477153 234.447715,24 235,24 C235.552285,24 236,24.4477153 236,25 C236,25.5522847 235.552285,26 235,26 Z M247,26 C246.447715,26 246,25.5522847 246,25 C246,24.4477153 246.447715,24 247,24 C247.552285,24 248,24.4477153 248,25 C248,25.5522847 247.552285,26 247,26 Z M259,26 C258.447715,26 258,25.5522847 258,25 C258,24.4477153 258.447715,24 259,24 C259.552285,24 260,24.4477153 260,25 C260,25.5522847 259.552285,26 259,26 Z M271,26 C270.447715,26 270,25.5522847 270,25 C270,24.4477153 270.447715,24 271,24 C271.552285,24 272,24.4477153 272,25 C272,25.5522847 271.552285,26 271,26 Z M283,26 C282.447715,26 282,25.5522847 282,25 C282,24.4477153 282.447715,24 283,24 C283.552285,24 284,24.4477153 284,25 C284,25.5522847 283.552285,26 283,26 Z M295,26 C294.447715,26 294,25.5522847 294,25 C294,24.4477153 294.447715,24 295,24 C295.552285,24 296,24.4477153 296,25 C296,25.5522847 295.552285,26 295,26 Z M307,26 C306.447715,26 306,25.5522847 306,25 C306,24.4477153 306.447715,24 307,24 C307.552285,24 308,24.4477153 308,25 C308,25.5522847 307.552285,26 307,26 Z M319,26 C318.447715,26 318,25.5522847 318,25 C318,24.4477153 318.447715,24 319,24 C319.552285,24 320,24.4477153 320,25 C320,25.5522847 319.552285,26 319,26 Z M331,26 C330.447715,26 330,25.5522847 330,25 C330,24.4477153 330.447715,24 331,24 C331.552285,24 332,24.4477153 332,25 C332,25.5522847 331.552285,26 331,26 Z M343,26 C342.447715,26 342,25.5522847 342,25 C342,24.4477153 342.447715,24 343,24 C343.552285,24 344,24.4477153 344,25 C344,25.5522847 343.552285,26 343,26 Z M355,26 C354.447715,26 354,25.5522847 354,25 C354,24.4477153 354.447715,24 355,24 C355.552285,24 356,24.4477153 356,25 C356,25.5522847 355.552285,26 355,26 Z M367,26 C366.447715,26 366,25.5522847 366,25 C366,24.4477153 366.447715,24 367,24 C367.552285,24 368,24.4477153 368,25 C368,25.5522847 367.552285,26 367,26 Z M379,26 C378.447715,26 378,25.5522847 378,25 C378,24.4477153 378.447715,24 379,24 C379.552285,24 380,24.4477153 380,25 C380,25.5522847 379.552285,26 379,26 Z M391,26 C390.447715,26 390,25.5522847 390,25 C390,24.4477153 390.447715,24 391,24 C391.552285,24 392,24.4477153 392,25 C392,25.5522847 391.552285,26 391,26 Z" id="Combined-Shape-Copy-2"></path>
                        <path d="M1,14 C0.44771525,14 0,13.5522847 0,13 C0,12.4477153 0.44771525,12 1,12 C1.55228475,12 2,12.4477153 2,13 C2,13.5522847 1.55228475,14 1,14 Z M13,14 C12.4477153,14 12,13.5522847 12,13 C12,12.4477153 12.4477153,12 13,12 C13.5522847,12 14,12.4477153 14,13 C14,13.5522847 13.5522847,14 13,14 Z M25,14 C24.4477153,14 24,13.5522847 24,13 C24,12.4477153 24.4477153,12 25,12 C25.5522847,12 26,12.4477153 26,13 C26,13.5522847 25.5522847,14 25,14 Z M37,14 C36.4477153,14 36,13.5522847 36,13 C36,12.4477153 36.4477153,12 37,12 C37.5522847,12 38,12.4477153 38,13 C38,13.5522847 37.5522847,14 37,14 Z M49,14 C48.4477153,14 48,13.5522847 48,13 C48,12.4477153 48.4477153,12 49,12 C49.5522847,12 50,12.4477153 50,13 C50,13.5522847 49.5522847,14 49,14 Z M61,14 C60.4477153,14 60,13.5522847 60,13 C60,12.4477153 60.4477153,12 61,12 C61.5522847,12 62,12.4477153 62,13 C62,13.5522847 61.5522847,14 61,14 Z M73,14 C72.4477153,14 72,13.5522847 72,13 C72,12.4477153 72.4477153,12 73,12 C73.5522847,12 74,12.4477153 74,13 C74,13.5522847 73.5522847,14 73,14 Z M85,14 C84.4477153,14 84,13.5522847 84,13 C84,12.4477153 84.4477153,12 85,12 C85.5522847,12 86,12.4477153 86,13 C86,13.5522847 85.5522847,14 85,14 Z M97,14 C96.4477153,14 96,13.5522847 96,13 C96,12.4477153 96.4477153,12 97,12 C97.5522847,12 98,12.4477153 98,13 C98,13.5522847 97.5522847,14 97,14 Z M109,14 C108.447715,14 108,13.5522847 108,13 C108,12.4477153 108.447715,12 109,12 C109.552285,12 110,12.4477153 110,13 C110,13.5522847 109.552285,14 109,14 Z M121,14 C120.447715,14 120,13.5522847 120,13 C120,12.4477153 120.447715,12 121,12 C121.552285,12 122,12.4477153 122,13 C122,13.5522847 121.552285,14 121,14 Z M133,14 C132.447715,14 132,13.5522847 132,13 C132,12.4477153 132.447715,12 133,12 C133.552285,12 134,12.4477153 134,13 C134,13.5522847 133.552285,14 133,14 Z M145,14 C144.447715,14 144,13.5522847 144,13 C144,12.4477153 144.447715,12 145,12 C145.552285,12 146,12.4477153 146,13 C146,13.5522847 145.552285,14 145,14 Z M157,14 C156.447715,14 156,13.5522847 156,13 C156,12.4477153 156.447715,12 157,12 C157.552285,12 158,12.4477153 158,13 C158,13.5522847 157.552285,14 157,14 Z M169,14 C168.447715,14 168,13.5522847 168,13 C168,12.4477153 168.447715,12 169,12 C169.552285,12 170,12.4477153 170,13 C170,13.5522847 169.552285,14 169,14 Z M181,14 C180.447715,14 180,13.5522847 180,13 C180,12.4477153 180.447715,12 181,12 C181.552285,12 182,12.4477153 182,13 C182,13.5522847 181.552285,14 181,14 Z M193,14 C192.447715,14 192,13.5522847 192,13 C192,12.4477153 192.447715,12 193,12 C193.552285,12 194,12.4477153 194,13 C194,13.5522847 193.552285,14 193,14 Z M205,14 C204.447715,14 204,13.5522847 204,13 C204,12.4477153 204.447715,12 205,12 C205.552285,12 206,12.4477153 206,13 C206,13.5522847 205.552285,14 205,14 Z M217,14 C216.447715,14 216,13.5522847 216,13 C216,12.4477153 216.447715,12 217,12 C217.552285,12 218,12.4477153 218,13 C218,13.5522847 217.552285,14 217,14 Z M229,14 C228.447715,14 228,13.5522847 228,13 C228,12.4477153 228.447715,12 229,12 C229.552285,12 230,12.4477153 230,13 C230,13.5522847 229.552285,14 229,14 Z M241,14 C240.447715,14 240,13.5522847 240,13 C240,12.4477153 240.447715,12 241,12 C241.552285,12 242,12.4477153 242,13 C242,13.5522847 241.552285,14 241,14 Z M253,14 C252.447715,14 252,13.5522847 252,13 C252,12.4477153 252.447715,12 253,12 C253.552285,12 254,12.4477153 254,13 C254,13.5522847 253.552285,14 253,14 Z M265,14 C264.447715,14 264,13.5522847 264,13 C264,12.4477153 264.447715,12 265,12 C265.552285,12 266,12.4477153 266,13 C266,13.5522847 265.552285,14 265,14 Z M277,14 C276.447715,14 276,13.5522847 276,13 C276,12.4477153 276.447715,12 277,12 C277.552285,12 278,12.4477153 278,13 C278,13.5522847 277.552285,14 277,14 Z M289,14 C288.447715,14 288,13.5522847 288,13 C288,12.4477153 288.447715,12 289,12 C289.552285,12 290,12.4477153 290,13 C290,13.5522847 289.552285,14 289,14 Z M301,14 C300.447715,14 300,13.5522847 300,13 C300,12.4477153 300.447715,12 301,12 C301.552285,12 302,12.4477153 302,13 C302,13.5522847 301.552285,14 301,14 Z M313,14 C312.447715,14 312,13.5522847 312,13 C312,12.4477153 312.447715,12 313,12 C313.552285,12 314,12.4477153 314,13 C314,13.5522847 313.552285,14 313,14 Z M325,14 C324.447715,14 324,13.5522847 324,13 C324,12.4477153 324.447715,12 325,12 C325.552285,12 326,12.4477153 326,13 C326,13.5522847 325.552285,14 325,14 Z M337,14 C336.447715,14 336,13.5522847 336,13 C336,12.4477153 336.447715,12 337,12 C337.552285,12 338,12.4477153 338,13 C338,13.5522847 337.552285,14 337,14 Z M349,14 C348.447715,14 348,13.5522847 348,13 C348,12.4477153 348.447715,12 349,12 C349.552285,12 350,12.4477153 350,13 C350,13.5522847 349.552285,14 349,14 Z M361,14 C360.447715,14 360,13.5522847 360,13 C360,12.4477153 360.447715,12 361,12 C361.552285,12 362,12.4477153 362,13 C362,13.5522847 361.552285,14 361,14 Z M373,14 C372.447715,14 372,13.5522847 372,13 C372,12.4477153 372.447715,12 373,12 C373.552285,12 374,12.4477153 374,13 C374,13.5522847 373.552285,14 373,14 Z M385,14 C384.447715,14 384,13.5522847 384,13 C384,12.4477153 384.447715,12 385,12 C385.552285,12 386,12.4477153 386,13 C386,13.5522847 385.552285,14 385,14 Z" id="Combined-Shape-Copy"></path>
                    </g>
                </g>
            </g>
        </g>
    </g>
</svg>