<?xml version="1.0" encoding="UTF-8"?>
<svg width="280px" height="10px" viewBox="0 0 280 10" version="1.1" xmlns="http://www.w3.org/2000/svg" xmlns:xlink="http://www.w3.org/1999/xlink">
    <!-- Generator: Sketch 44.1 (41455) - http://www.bohemiancoding.com/sketch -->
    <title>Page 1</title>
    <desc>Created with Sketch.</desc>
    <defs></defs>
    <g id="活动页" stroke="none" stroke-width="1" fill="none" fill-rule="evenodd" stroke-linecap="round">
        <g id="抽奖转盘" transform="translate(-48.000000, -562.000000)" stroke="#FF2D4B">
            <g id="标题" transform="translate(48.000000, 526.000000)">
                <path d="M0,37 C6.99919263,37 6.99919263,44.7331064 13.9978379,44.7331064 C20.9964832,44.7331064 20.9964832,37 27.9956758,37 C34.9948684,37 34.9948684,44.7331064 41.9940611,44.7331064 C48.9932537,44.7331064 48.9932537,37 55.9929937,37 C62.9932811,37 62.9932811,44.7331064 69.9935684,44.7331064 C76.9927611,44.7331064 76.9927611,37 83.9919537,37 C90.9922411,37 90.9922411,44.7331064 97.9919811,44.7331064 C104.991721,44.7331064 104.991721,37 111.991461,37 C118.991201,37 118.991201,44.7331064 125.990394,44.7331064 C132.990681,44.7331064 132.990681,37 139.990421,37 C146.990708,37 146.990708,44.7331064 153.990448,44.7331064 C160.989094,44.7331064 160.989094,37 167.988286,37 C174.987479,37 174.987479,44.7331064 181.987219,44.7331064 C188.986959,44.7331064 188.986959,37 195.986699,37 C202.986986,37 202.986986,44.7331064 209.987821,44.7331064 C216.988656,44.7331064 216.988656,37 223.988943,37 C230.989778,37 230.989778,44.7331064 237.990613,44.7331064 C244.991447,44.7331064 244.991447,37 251.992282,37 C258.994212,37 258.994212,44.7331064 265.996141,44.7331064 C272.998071,44.7331064 272.998071,37 280,37" id="Page-1" transform="translate(140.000000, 40.866553) scale(1, -1) translate(-140.000000, -40.866553) "></path>
            </g>
        </g>
    </g>
</svg>